<mxfile host="65bd71144e">
    <diagram id="_pRy-s4cgu36gsZcxkni" name="Page-1">
        <mxGraphModel dx="1245" dy="760" grid="1" gridSize="10" guides="1" tooltips="1" connect="1" arrows="1" fold="1" page="1" pageScale="1" pageWidth="850" pageHeight="1100" math="0" shadow="0">
            <root>
                <mxCell id="0"/>
                <mxCell id="1" parent="0"/>
                <mxCell id="45" value="" style="group" vertex="1" connectable="0" parent="1">
                    <mxGeometry x="300" y="150" width="510" height="110" as="geometry"/>
                </mxCell>
                <mxCell id="40" value="&lt;u&gt;Program&lt;/u&gt;" style="swimlane;whiteSpace=wrap;html=1;" vertex="1" parent="45">
                    <mxGeometry y="30" width="200" height="50" as="geometry"/>
                </mxCell>
                <mxCell id="42" value="&lt;u&gt;- Main(string[] args)&lt;/u&gt;" style="text;html=1;align=left;verticalAlign=middle;resizable=0;points=[];autosize=1;strokeColor=none;fillColor=none;" vertex="1" parent="40">
                    <mxGeometry x="5" y="20" width="130" height="30" as="geometry"/>
                </mxCell>
                <mxCell id="43" value="" style="group" vertex="1" connectable="0" parent="45">
                    <mxGeometry x="310" width="200" height="110" as="geometry"/>
                </mxCell>
                <mxCell id="34" value="SocialMediaApp" style="swimlane;whiteSpace=wrap;html=1;" vertex="1" parent="43">
                    <mxGeometry width="200" height="110" as="geometry"/>
                </mxCell>
                <mxCell id="35" value="- _postService: IPostService" style="text;html=1;align=left;verticalAlign=middle;resizable=0;points=[];autosize=1;strokeColor=none;fillColor=none;" vertex="1" parent="34">
                    <mxGeometry x="7" y="22" width="170" height="30" as="geometry"/>
                </mxCell>
                <mxCell id="37" value="" style="endArrow=none;html=1;startSize=6;endSize=6;" edge="1" parent="34">
                    <mxGeometry width="50" height="50" relative="1" as="geometry">
                        <mxPoint y="79.71000000000004" as="sourcePoint"/>
                        <mxPoint x="200" y="79.71000000000004" as="targetPoint"/>
                    </mxGeometry>
                </mxCell>
                <mxCell id="39" value="+ RunApp(): void" style="text;html=1;align=left;verticalAlign=middle;resizable=0;points=[];autosize=1;strokeColor=none;fillColor=none;" vertex="1" parent="34">
                    <mxGeometry x="6" y="80" width="110" height="30" as="geometry"/>
                </mxCell>
                <mxCell id="36" value="" style="endArrow=none;html=1;startSize=6;endSize=6;exitX=0;exitY=0.25;exitDx=0;exitDy=0;entryX=1;entryY=0.25;entryDx=0;entryDy=0;" edge="1" parent="43">
                    <mxGeometry width="50" height="50" relative="1" as="geometry">
                        <mxPoint y="51.5" as="sourcePoint"/>
                        <mxPoint x="200" y="51.5" as="targetPoint"/>
                    </mxGeometry>
                </mxCell>
                <mxCell id="38" value="+ SocialMediaApp()" style="text;html=1;align=left;verticalAlign=middle;resizable=0;points=[];autosize=1;strokeColor=none;fillColor=none;" vertex="1" parent="43">
                    <mxGeometry x="6" y="50" width="130" height="30" as="geometry"/>
                </mxCell>
                <mxCell id="44" value="" style="edgeStyle=none;html=1;startArrow=none;startFill=0;endArrow=classic;endFill=0;startSize=6;endSize=6;entryX=0;entryY=0.5;entryDx=0;entryDy=0;" edge="1" parent="45" source="40" target="34">
                    <mxGeometry relative="1" as="geometry"/>
                </mxCell>
                <mxCell id="53" value="" style="edgeStyle=none;html=1;startArrow=none;startFill=0;endArrow=classic;endFill=0;startSize=6;endSize=6;entryX=0.882;entryY=1.007;entryDx=0;entryDy=0;entryPerimeter=0;" edge="1" parent="1" source="18" target="39">
                    <mxGeometry relative="1" as="geometry"/>
                </mxCell>
                <mxCell id="13" value="PostRepository" style="swimlane;whiteSpace=wrap;html=1;container=0;" vertex="1" parent="1">
                    <mxGeometry x="770" y="360" width="200" height="80" as="geometry">
                        <mxRectangle x="140" y="80" width="70" height="30" as="alternateBounds"/>
                    </mxGeometry>
                </mxCell>
                <mxCell id="14" value="- _posts: IPost[]&lt;br&gt;" style="text;html=1;align=left;verticalAlign=middle;resizable=0;points=[];autosize=1;strokeColor=none;fillColor=none;container=0;" vertex="1" parent="13">
                    <mxGeometry x="5" y="35" width="110" height="30" as="geometry"/>
                </mxCell>
                <mxCell id="15" value="IPostRepository" style="swimlane;whiteSpace=wrap;html=1;" vertex="1" parent="1">
                    <mxGeometry x="770" y="540" width="200" height="60" as="geometry"/>
                </mxCell>
                <mxCell id="16" value="&lt;div style=&quot;&quot;&gt;+ AddPost: void&lt;/div&gt;&lt;div style=&quot;&quot;&gt;+ GetPosts: IPost[]&lt;/div&gt;" style="text;html=1;align=left;verticalAlign=middle;resizable=0;points=[];autosize=1;strokeColor=none;fillColor=none;" vertex="1" parent="15">
                    <mxGeometry x="10" y="20" width="120" height="40" as="geometry"/>
                </mxCell>
                <mxCell id="17" value="" style="endArrow=classic;html=1;startSize=6;endSize=6;entryX=0.5;entryY=0;entryDx=0;entryDy=0;dashed=1;endFill=0;exitX=0.5;exitY=1;exitDx=0;exitDy=0;" edge="1" parent="1" target="15" source="13">
                    <mxGeometry width="50" height="50" relative="1" as="geometry">
                        <mxPoint x="969.9999999999999" y="400" as="sourcePoint"/>
                        <mxPoint x="1090" y="420" as="targetPoint"/>
                    </mxGeometry>
                </mxCell>
                <mxCell id="54" style="edgeStyle=none;html=1;exitX=0.5;exitY=0;exitDx=0;exitDy=0;entryX=0.75;entryY=1;entryDx=0;entryDy=0;startArrow=none;startFill=0;endArrow=classic;endFill=0;startSize=6;endSize=6;" edge="1" parent="1" source="13" target="34">
                    <mxGeometry relative="1" as="geometry"/>
                </mxCell>
                <mxCell id="10" value="IPost" style="swimlane;whiteSpace=wrap;html=1;" vertex="1" parent="1">
                    <mxGeometry x="230" y="480" width="200" height="80" as="geometry"/>
                </mxCell>
                <mxCell id="11" value="&lt;div style=&quot;text-align: left;&quot;&gt;&lt;span style=&quot;background-color: initial;&quot;&gt;+ GetAuthor: string&lt;/span&gt;&lt;/div&gt;&lt;div style=&quot;text-align: left;&quot;&gt;&lt;span style=&quot;background-color: initial;&quot;&gt;+ GetTitle: string&lt;/span&gt;&lt;/div&gt;&lt;div style=&quot;text-align: left;&quot;&gt;&lt;span style=&quot;background-color: initial;&quot;&gt;+ GetText: string&lt;/span&gt;&lt;/div&gt;" style="text;html=1;align=center;verticalAlign=middle;resizable=0;points=[];autosize=1;strokeColor=none;fillColor=none;" vertex="1" parent="10">
                    <mxGeometry y="20" width="120" height="60" as="geometry"/>
                </mxCell>
                <mxCell id="12" value="" style="endArrow=classic;html=1;startSize=6;endSize=6;dashed=1;endFill=0;exitX=0.488;exitY=1.046;exitDx=0;exitDy=0;entryX=0.457;entryY=0.005;entryDx=0;entryDy=0;exitPerimeter=0;entryPerimeter=0;" edge="1" parent="1" source="24" target="10">
                    <mxGeometry width="50" height="50" relative="1" as="geometry">
                        <mxPoint x="750" y="335" as="sourcePoint"/>
                        <mxPoint x="780" y="325" as="targetPoint"/>
                    </mxGeometry>
                </mxCell>
                <mxCell id="49" value="" style="group" vertex="1" connectable="0" parent="1">
                    <mxGeometry x="200" y="300" width="245" height="110" as="geometry"/>
                </mxCell>
                <mxCell id="2" value="Post" style="swimlane;whiteSpace=wrap;html=1;container=0;" vertex="1" parent="49">
                    <mxGeometry width="245" height="110" as="geometry">
                        <mxRectangle x="140" y="80" width="70" height="30" as="alternateBounds"/>
                    </mxGeometry>
                </mxCell>
                <mxCell id="24" value="Post(string author, string title, string text)" style="text;html=1;align=left;verticalAlign=middle;resizable=0;points=[];autosize=1;strokeColor=none;fillColor=none;" vertex="1" parent="2">
                    <mxGeometry x="5" y="80" width="240" height="30" as="geometry"/>
                </mxCell>
                <mxCell id="3" value="- _author: string&lt;br&gt;- _title: string&lt;br&gt;&lt;div style=&quot;&quot;&gt;&lt;span style=&quot;background-color: initial;&quot;&gt;- _text: string&lt;/span&gt;&lt;/div&gt;" style="text;html=1;align=left;verticalAlign=middle;resizable=0;points=[];autosize=1;strokeColor=none;fillColor=none;container=0;" vertex="1" parent="49">
                    <mxGeometry x="5" y="20" width="110" height="60" as="geometry"/>
                </mxCell>
                <mxCell id="26" value="" style="endArrow=none;html=1;startSize=6;endSize=6;exitX=0;exitY=0.75;exitDx=0;exitDy=0;entryX=1;entryY=0.75;entryDx=0;entryDy=0;" edge="1" parent="49" source="2" target="2">
                    <mxGeometry width="50" height="50" relative="1" as="geometry">
                        <mxPoint x="130" y="75" as="sourcePoint"/>
                        <mxPoint x="180" y="25" as="targetPoint"/>
                    </mxGeometry>
                </mxCell>
                <mxCell id="50" value="" style="edgeStyle=none;html=1;startArrow=none;startFill=0;endArrow=classic;endFill=0;startSize=6;endSize=6;" edge="1" parent="1">
                    <mxGeometry relative="1" as="geometry">
                        <mxPoint x="445" y="349" as="sourcePoint"/>
                        <mxPoint x="650" y="260" as="targetPoint"/>
                    </mxGeometry>
                </mxCell>
                <mxCell id="56" style="edgeStyle=none;html=1;exitX=0.75;exitY=1;exitDx=0;exitDy=0;entryX=0.135;entryY=-0.008;entryDx=0;entryDy=0;startArrow=none;startFill=0;endArrow=open;endFill=0;startSize=6;endSize=6;entryPerimeter=0;dashed=1;" edge="1" parent="1" source="18" target="15">
                    <mxGeometry relative="1" as="geometry"/>
                </mxCell>
                <mxCell id="18" value="PostService" style="swimlane;whiteSpace=wrap;html=1;container=0;" vertex="1" parent="1">
                    <mxGeometry x="475" y="370" width="263.5" height="80" as="geometry">
                        <mxRectangle x="140" y="80" width="70" height="30" as="alternateBounds"/>
                    </mxGeometry>
                </mxCell>
                <mxCell id="19" value="- _posts: IPost[]&lt;br&gt;" style="text;html=1;align=left;verticalAlign=middle;resizable=0;points=[];autosize=1;strokeColor=none;fillColor=none;container=0;" vertex="1" parent="18">
                    <mxGeometry x="3.5" y="18" width="110" height="30" as="geometry"/>
                </mxCell>
                <mxCell id="28" value="PostService(IPostRepository postRepository)" style="text;html=1;align=left;verticalAlign=middle;resizable=0;points=[];autosize=1;strokeColor=none;fillColor=none;" vertex="1" parent="18">
                    <mxGeometry x="3.5" y="48" width="260" height="30" as="geometry"/>
                </mxCell>
                <mxCell id="20" value="IPostService" style="swimlane;whiteSpace=wrap;html=1;" vertex="1" parent="1">
                    <mxGeometry x="500" y="540" width="200" height="60" as="geometry"/>
                </mxCell>
                <mxCell id="21" value="&lt;div style=&quot;&quot;&gt;+ AddPost: void&lt;/div&gt;&lt;div style=&quot;&quot;&gt;+ GetPosts: IPost[]&lt;/div&gt;" style="text;html=1;align=left;verticalAlign=middle;resizable=0;points=[];autosize=1;strokeColor=none;fillColor=none;" vertex="1" parent="20">
                    <mxGeometry x="10" y="20" width="120" height="40" as="geometry"/>
                </mxCell>
                <mxCell id="22" value="" style="endArrow=classic;html=1;startSize=6;endSize=6;dashed=1;endFill=0;exitX=0.464;exitY=1.197;exitDx=0;exitDy=0;entryX=0.5;entryY=0;entryDx=0;entryDy=0;exitPerimeter=0;" edge="1" parent="1" target="20" source="28">
                    <mxGeometry width="50" height="50" relative="1" as="geometry">
                        <mxPoint x="738.5" y="415.9999999999999" as="sourcePoint"/>
                        <mxPoint x="805" y="416" as="targetPoint"/>
                    </mxGeometry>
                </mxCell>
                <mxCell id="27" value="" style="endArrow=none;html=1;startSize=6;endSize=6;entryX=1;entryY=0.5;entryDx=0;entryDy=0;exitX=0;exitY=0.5;exitDx=0;exitDy=0;" edge="1" parent="1">
                    <mxGeometry width="50" height="50" relative="1" as="geometry">
                        <mxPoint x="475" y="416.9999999999999" as="sourcePoint"/>
                        <mxPoint x="738.5" y="416.9999999999999" as="targetPoint"/>
                    </mxGeometry>
                </mxCell>
            </root>
        </mxGraphModel>
    </diagram>
</mxfile>